<svg version="1.1" viewBox="0 0 26.458 19.874" xmlns="http://www.w3.org/2000/svg">
 <g transform="translate(-63.558 -158.82)">
  <path d="m76.763 158.82-3.37e-4 1.8e-4c-5.3498 5e-3 -9.7848 4.2037-10.885 9.767a5.585 5.585 0 0 0-2.3189 4.5218 5.585 5.585 0 0 0 5.5849 5.5849v-11.17a5.585 5.585 0 0 0-1.5945 0.23687c1.2987-4.3999 4.9583-7.5173 9.2144-7.522h6.74e-4c4.2641 2.9e-4 7.9197 3.1221 9.2203 7.5095a5.585 5.585 0 0 0-1.5524-0.22433v11.17a5.585 5.585 0 0 0 5.5849-5.5849 5.585 5.585 0 0 0-2.3652-4.559c-1.1117-5.5379-5.5356-9.7299-10.888-9.73z" stroke-width=".077871"/>
 </g>
</svg>
