<svg version="1.1" viewBox="0 0 26.458 19.874" xmlns="http://www.w3.org/2000/svg">
 <g transform="translate(-63.558 -158.82)">
  <path transform="translate(63.558,158.82)" d="m13.205 0c-5.3498 5e-3 -9.7846 4.2043-10.885 9.7676a5.585 5.585 0 0 0-2.3203 4.5215 5.585 5.585 0 0 0 5.5859 5.584v-11.17a5.585 5.585 0 0 0-1.5957 0.23828c1.2987-4.3999 4.9587-7.5187 9.2148-7.5234h0.001953c4.2641 2.9e-4 7.9182 3.1224 9.2188 7.5098a5.585 5.585 0 0 0-1.5508-0.22461v11.17a5.585 5.585 0 0 0 5.584-5.584 5.585 5.585 0 0 0-2.3652-4.5586c-1.1117-5.5379-5.5363-9.7304-10.889-9.7305zm-10.037 12.744h1.1172v4.8828h-1.1172v-4.8828zm19.004 0h1.1191v4.8828h-1.1191v-4.8828z"/>
 </g>
</svg>
