<svg version="1.1" viewBox="0 0 26.458 14.617" xmlns="http://www.w3.org/2000/svg">
 <g transform="translate(-50.427 -124.89)">
  <path d="m52.875 124.89h21.563c1.3559 0 2.4476 1.0916 2.4476 2.4476v9.7217c0 1.3559-1.0916 2.4476-2.4476 2.4476h-5.3908l-5.3908-1.3301-5.3908 1.3301h-5.3908c-1.3559 0-2.4476-1.0916-2.4476-2.4476v-9.7217c0-1.3559 1.0916-2.4476 2.4476-2.4476z"/>
  <path d="m53.328 126.73h20.658c1.299 0 2.3448 0.81803 2.3448 1.8341v7.2853c0 1.0161-1.0458 1.8341-2.3448 1.8341h-5.1644l-5.1644-1.4216-5.1644 1.4216h-5.1644c-1.299 0-2.3448-0.81803-2.3448-1.8341v-7.2853c0-1.0161 1.0458-1.8341 2.3448-1.8341z" fill="#ccc"/>
  <circle cx="56.832" cy="132.17" r="3.4343"/>
  <circle cx="70.629" cy="132.17" r="3.4343"/>
 </g>
</svg>
